<svg width="142" height="142" viewBox="0 0 142 142" fill="none" xmlns="http://www.w3.org/2000/svg">
<circle cx="71" cy="71" r="71" fill="white"/>
<g filter="url(#filter0_d_168_4538)">
<path d="M39.6267 72.011C39.4173 70.6497 39.878 67.55 43.3966 66.042C46.9152 64.534 50.0987 66.8798 51.2506 68.2411C50.3223 66.0648 49.4625 61.0701 53.4497 58.5021C56.5913 56.9312 59.7329 57.5595 60.9895 60.387C62.7935 60.365 66.3952 60.9644 66.8758 63.4859C66.5618 60.9183 67.1071 55.9945 71.671 54.7322C71.8804 53.4755 73.0533 51.0879 76.0692 51.5906C79.8391 52.2189 81.4099 55.3605 81.4099 55.3605C82.2335 54.081 84.509 51.7734 87.0223 52.7787C90.1639 54.0354 94.3329 56.0573 94.9187 62.9003C97.6556 63.0279 103.058 65.0287 102.773 72.011H39.6267Z" fill="#FF8036"/>
</g>
<path fill-rule="evenodd" clip-rule="evenodd" d="M103.809 71.6283C106.5 71.6283 108.423 74.2315 107.633 76.8035L95.221 117.184C94.705 118.863 93.154 120.009 91.3975 120.009H50.4983C48.7418 120.009 47.1908 118.863 46.6748 117.184L34.2633 76.8035C33.4727 74.2315 35.396 71.6283 38.0867 71.6283H103.809Z" fill="#1A2232"/>
<path fill-rule="evenodd" clip-rule="evenodd" d="M59.0621 29.0887L67.8585 21.1684V40.6145L59.0621 48.5349V29.0887ZM52.7789 34.7461L43.9824 42.6665V62.1127L52.7789 54.1923V34.7461ZM84.1092 25.9823L74.1417 34.9571V15.5109L74.4394 15.2429C76.0811 13.7647 78.6103 13.8973 80.0885 15.539L84.4053 20.3332C85.8835 21.9749 85.7509 24.5041 84.1092 25.9823ZM26.2205 58.6594C24.5788 60.1376 24.4462 62.6668 25.9244 64.3085L30.2412 69.1028C31.7194 70.7445 34.2486 70.877 35.8903 69.3988L37.6992 67.7701V48.3239L26.2205 58.6594Z" fill="#1A2232"/>
<g filter="url(#filter1_d_168_4538)">
<path d="M80.2392 86.7079C80.3439 87.1896 80.3544 87.6818 80.2706 88.1844C80.2078 88.6661 80.1135 89.106 79.9879 89.5039C79.7365 90.3207 79.4433 91.2318 79.1082 92.2371C78.7731 93.2424 78.438 94.2477 78.1029 95.253C77.7678 96.2583 77.4432 97.2113 77.129 98.1119C76.8149 98.9915 76.5531 99.7245 76.3436 100.311C76.1342 100.856 75.9143 101.473 75.6839 102.165C75.4535 102.856 75.1708 103.536 74.8357 104.207C74.5215 104.856 74.1445 105.453 73.7047 105.997C73.2858 106.542 72.7727 106.94 72.1653 107.191C71.5579 107.442 71.0029 107.505 70.5003 107.38C69.9976 107.233 69.5473 106.982 69.1494 106.626C68.7514 106.249 68.3849 105.788 68.0498 105.243C67.7357 104.678 67.4529 104.102 67.2016 103.515C66.9503 102.929 66.7199 102.363 66.5104 101.819C66.301 101.253 66.1125 100.772 65.945 100.374C65.2957 98.9496 64.7093 97.4417 64.1857 95.8499C63.6621 94.2582 63.128 92.7397 62.5835 91.2946C62.4368 90.8757 62.2693 90.3731 62.0808 89.7866C61.8923 89.1793 61.7666 88.5824 61.7038 87.9959C61.6619 87.3886 61.7352 86.844 61.9237 86.3623C62.1122 85.8597 62.5101 85.5141 63.1175 85.3256C63.2432 85.2837 63.3689 85.2523 63.4945 85.2313C63.6411 85.1894 63.7773 85.158 63.9029 85.1371C64.0495 85.1371 64.1857 85.1476 64.3113 85.1685C64.437 85.1894 64.5731 85.2418 64.7197 85.3256C64.8245 85.3675 64.9292 85.4198 65.0339 85.4827C65.1386 85.5245 65.2329 85.5874 65.3166 85.6712C65.4004 85.7759 65.4737 85.8806 65.5365 85.9853C65.6203 86.09 65.7041 86.1948 65.7879 86.2995C65.8507 86.4461 65.9031 86.5822 65.945 86.7079C66.0078 86.8126 66.0601 86.9173 66.102 87.022C66.1439 87.1686 66.1963 87.3048 66.2591 87.4304C66.3219 87.5352 66.3743 87.6399 66.4162 87.7446L66.6047 88.2787L71.1286 101.191L75.5896 88.3101L75.8096 87.776C75.8514 87.6713 75.8933 87.5666 75.9352 87.4619C75.9771 87.3362 76.019 87.2001 76.0609 87.0535C76.1028 86.9487 76.1447 86.844 76.1866 86.7393C76.2494 86.6136 76.3227 86.488 76.4065 86.3623C76.4693 86.2576 76.5321 86.1529 76.595 86.0481C76.6787 85.9225 76.7625 85.8073 76.8463 85.7026C76.9091 85.6188 76.9824 85.5455 77.0662 85.4827C77.1709 85.4198 77.2652 85.3675 77.3489 85.3256C77.5165 85.2418 77.6631 85.1894 77.7888 85.1685C77.9354 85.1476 78.061 85.1371 78.1658 85.1371C78.2914 85.158 78.4171 85.1894 78.5427 85.2313C78.6894 85.2523 78.8255 85.2837 78.9512 85.3256C79.3491 85.4303 79.6423 85.6083 79.8308 85.8597C80.0402 86.111 80.1764 86.3937 80.2392 86.7079Z" fill="#D9D9D9"/>
</g>
<defs>
<filter id="filter0_d_168_4538" x="35.5842" y="45.5221" width="71.1995" height="28.4889" filterUnits="userSpaceOnUse" color-interpolation-filters="sRGB">
<feFlood flood-opacity="0" result="BackgroundImageFix"/>
<feColorMatrix in="SourceAlpha" type="matrix" values="0 0 0 0 0 0 0 0 0 0 0 0 0 0 0 0 0 0 127 0" result="hardAlpha"/>
<feOffset dy="-2"/>
<feGaussianBlur stdDeviation="2"/>
<feComposite in2="hardAlpha" operator="out"/>
<feColorMatrix type="matrix" values="0 0 0 0 1 0 0 0 0 0.50125 0 0 0 0 0.2125 0 0 0 0.56 0"/>
<feBlend mode="normal" in2="BackgroundImageFix" result="effect1_dropShadow_168_4538"/>
<feBlend mode="normal" in="SourceGraphic" in2="effect1_dropShadow_168_4538" result="shape"/>
</filter>
<filter id="filter1_d_168_4538" x="57.6924" y="80.1371" width="26.634" height="30.3053" filterUnits="userSpaceOnUse" color-interpolation-filters="sRGB">
<feFlood flood-opacity="0" result="BackgroundImageFix"/>
<feColorMatrix in="SourceAlpha" type="matrix" values="0 0 0 0 0 0 0 0 0 0 0 0 0 0 0 0 0 0 127 0" result="hardAlpha"/>
<feOffset dy="-1"/>
<feGaussianBlur stdDeviation="2"/>
<feComposite in2="hardAlpha" operator="out"/>
<feColorMatrix type="matrix" values="0 0 0 0 0.861719 0 0 0 0 0.861719 0 0 0 0 0.861719 0 0 0 0.6 0"/>
<feBlend mode="normal" in2="BackgroundImageFix" result="effect1_dropShadow_168_4538"/>
<feBlend mode="normal" in="SourceGraphic" in2="effect1_dropShadow_168_4538" result="shape"/>
</filter>
</defs>
</svg>
